<svg xmlns="http://www.w3.org/2000/svg" viewBox="0 0 13.229 9.912" height="37.461" width="50"><path d="M12.889 3.386l.334-2.724a.559.559 0 00-.12-.453C13.013.084 12.863 0 12.65 0H1.796a.686.686 0 00-.504.209.708.708 0 00-.232.453L.726 3.386c-.105.856 1.204.856 1.309 0l.244-1.99h.001l.001-.009h1.302c.72 0 1.234.551 1.15 1.233L4.16 7.293c-.084.68-.734 1.231-1.453 1.231H1.405l.001-.01.244-1.988c.104-.855-1.205-.855-1.31 0L.006 9.249a.56.56 0 00.12.454c.09.126.24.209.453.209h10.854a.683.683 0 00.504-.209.709.709 0 00.232-.454l.334-2.723c.105-.855-1.204-.855-1.309 0l-.244 1.988h-.001l-.001.01H9.646c-.72 0-1.234-.55-1.15-1.23l.573-4.674c.084-.682.734-1.233 1.453-1.233h1.302l-.001.01-.243 1.99c-.105.855 1.204.855 1.309 0z" fill="#505570"/><path d="M5.977 3.17l.219-1.784H7.91L7.691 3.17z" fill="#3399fe"/><path d="M5.757 4.956l.22-1.785H7.69l-.22 1.785z" fill="#61ff30"/><path d="M5.538 6.741l.22-1.785h1.714l-.22 1.785z" fill="#ff6"/><path d="M5.319 8.526l.22-1.785h1.714l-.22 1.785z" fill="#ff3106"/></svg>