<svg version="1.0"
    xmlns="http://www.w3.org/2000/svg" viewBox="30.36 23.07 263.11 263.91">
    <path fill="#f05484" d="M150.5 23.7c-11 1.5-24.9 7.1-35.1 14.1-6.7 4.5-64.8 62.4-70.1 69.9-5.1 7.1-10 17.2-12.5 26-3.3 11.1-3.2 31.3 0 42.7 2.6 9.2 8.9 21.8 14.2 28.5 7.7 9.8 63.7 64.3 70.4 68.6 28.7 18.5 62.9 17.9 91.6-1.5 6.3-4.3 64.4-62.3 69.8-69.7 4.5-6.3 10.6-19.2 12.8-27.3 2.3-8.3 2.5-30 .5-38-1.9-7.4-6.2-17.9-10.3-24.8-2.3-4-13.6-16.1-37.3-39.7-36.8-36.9-39.7-39.2-56.3-45-11.1-3.9-26.1-5.4-37.7-3.8zm30.4 21.8c10.2 3.2 20.5 10.1 30.6 20.4l8 8.1h-7.8c-15 0-31.2 4.9-44.2 13.5-3.3 2.2-17.2 15-30.8 28.5-28.2 27.8-25.1 26.3-30.8 14.4-11-23-6-51 12.4-69.7 9.9-10 21.2-15.7 36.2-18 6-1 18.7.4 26.4 2.8zm51.5 50.9c10.5 3.6 15.8 6.8 23.7 14.6 20.4 20.2 24.3 50.9 9.7 75.9-1.8 3.1-7.7 10.1-13 15.6l-9.8 10v-8c-.1-17.2-6.4-35.3-16.8-48.5-2-2.5-13.9-14.9-26.5-27.7-13.3-13.4-22.6-23.6-22.2-24.2 1.2-2.1 10.9-6.4 19.5-8.8 11.3-3.1 23.9-2.7 35.4 1.1zm-149 28.5c5 18.4 10.5 26.2 39.5 55.4 27.9 28.2 26.5 25.1 14.5 30.8-9.1 4.4-19.1 6.2-30 5.5-16-1-28.3-6.4-39.4-17.6-12.8-12.8-18.4-26.1-18.4-44 0-18.8 5.3-30.6 20.9-46.9l10-10.4.6 10.4c.3 5.7 1.4 13.3 2.3 16.8zm97.1 49.1L162 192.5l-18.7-18.7-18.8-18.8 18.5-18.5 18.5-18.5 18.7 18.7 18.8 18.8-18.5 18.5zm35.3 1.2c17.3 30.5 5.2 70.4-25.9 85.7-18.9 9.3-36.9 9.3-55.9-.1-7-3.4-10.4-6-19-14.4L104.5 236h8.5c17.2-.1 34.5-6.2 49-17.6 3-2.3 15.4-14.2 27.5-26.3 12.1-12.2 22.3-22.1 22.7-22.1.3 0 2 2.4 3.6 5.2z"/>
</svg>